<?xml version="1.0" encoding="UTF-8"?>
<svg width="65px" height="65px" viewBox="0 0 65 65" version="1.1" xmlns="http://www.w3.org/2000/svg" xmlns:xlink="http://www.w3.org/1999/xlink">
    <!-- Generator: Sketch 54.1 (76490) - https://sketchapp.com -->
    <title>Fill 1</title>
    <desc>Created with Sketch.</desc>
    <g id="Page-1" stroke="none" stroke-width="1" fill="none" fill-rule="evenodd">
        <g id="Artboard" fill="#5D00F2">
            <path d="M11.875,55 C8.54165,55 5.729178,53.9323 3.4375,51.79688 C1.145822,49.66145 0,47.03127 0,43.90625 L0,11.25 C0,8.12498 1.145822,5.46876 3.4375,3.28125 C5.729178,1.09374 8.54165,0 11.875,0 L53.125,0 C56.45835,0 59.27082,1.09374 61.5625,3.28125 C63.85418,5.46876 65,8.12498 65,11.25 L65,43.90625 C65,47.03127 63.85418,49.66145 61.5625,51.79688 C59.27082,53.9323 56.45835,55 53.125,55 L52.5,55 L52.5,65 C44.27079,59.374972 39.79167,56.302086 39.0625,55.78125 C38.33333,55.260414 37.23959,55 35.78125,55 L11.875,55 Z M51.09375,23.90625 C50.15625,22.96875 48.95834,22.5 47.5,22.5 C46.04166,22.5 44.84375,22.96875 43.90625,23.90625 C42.96875,24.84375 42.5,26.04166 42.5,27.5 C42.5,28.95834 42.96875,30.15625 43.90625,31.09375 C44.84375,32.03125 46.04166,32.5 47.5,32.5 C48.95834,32.5 50.15625,32.03125 51.09375,31.09375 C52.03125,30.15625 52.5,28.95834 52.5,27.5 C52.5,26.04166 52.03125,24.84375 51.09375,23.90625 Z M36.09375,23.90625 C35.15625,22.96875 33.95834,22.5 32.5,22.5 C31.04166,22.5 29.84375,22.96875 28.90625,23.90625 C27.96875,24.84375 27.5,26.04166 27.5,27.5 C27.5,28.95834 27.96875,30.15625 28.90625,31.09375 C29.84375,32.03125 31.04166,32.5 32.5,32.5 C33.95834,32.5 35.15625,32.03125 36.09375,31.09375 C37.03125,30.15625 37.5,28.95834 37.5,27.5 C37.5,26.04166 37.03125,24.84375 36.09375,23.90625 Z M21.09375,23.90625 C20.15625,22.96875 18.95834,22.5 17.5,22.5 C16.04166,22.5 14.84375,22.96875 13.90625,23.90625 C12.96875,24.84375 12.5,26.04166 12.5,27.5 C12.5,28.95834 12.96875,30.15625 13.90625,31.09375 C14.84375,32.03125 16.04166,32.5 17.5,32.5 C18.95834,32.5 20.15625,32.03125 21.09375,31.09375 C22.03125,30.15625 22.5,28.95834 22.5,27.5 C22.5,26.04166 22.03125,24.84375 21.09375,23.90625 Z" id="Fill-1"></path>
        </g>
    </g>
</svg>